# Blender 3.5.1
# www.blender.org
mtllib finish_line.mtl
o Track_Finish_Line_Black
v -0.235190 0.431571 1.358903
v -0.235190 0.451335 1.418196
v -0.110190 0.451335 1.418196
v -0.110190 0.431571 1.358903
v -0.235190 0.431571 1.296403
v -0.110190 0.431571 1.296403
v -0.110190 0.431571 0.296403
v 0.014810 0.431571 0.296403
v 0.014810 0.431571 0.171403
v -0.110190 0.431571 0.171403
v -0.360190 0.502361 1.529671
v -0.360190 0.481571 1.508903
v -0.235190 0.481571 1.508903
v -0.235190 0.502361 1.529671
v -0.235190 0.451335 1.418196
v -0.360190 0.451335 1.418196
v 0.014810 0.502361 -0.811865
v 0.014810 0.481571 -0.791097
v -0.110190 0.481571 -0.791097
v -0.110190 0.502361 -0.811865
v -0.110190 0.451335 -0.700390
v 0.014810 0.451335 -0.700390
v -0.110190 0.431571 0.546403
v 0.014810 0.431571 0.546403
v 0.014810 0.431571 0.421403
v -0.110190 0.431571 0.421403
v -0.235190 0.431571 0.796403
v -0.360190 0.431571 0.796403
v -0.360190 0.431571 0.671403
v -0.235190 0.431571 0.671403
v -0.235190 0.431571 0.046403
v -0.235190 0.431571 0.171403
v -0.110190 0.431571 0.171403
v -0.110190 0.431571 0.046403
v -0.110190 0.431571 0.421403
v -0.235190 0.431571 0.421403
v -0.235190 0.431571 0.296403
v -0.110190 0.431571 0.296403
v -0.110190 0.431571 0.796403
v 0.014810 0.431571 0.796403
v 0.014810 0.431571 0.671403
v -0.110190 0.431571 0.671403
v 0.014810 0.502361 1.529671
v 0.014810 0.481571 1.508903
v -0.110190 0.481571 1.508903
v -0.110190 0.502361 1.529671
v -0.110190 0.451335 1.418196
v 0.014810 0.451335 1.418196
v -0.235190 0.431571 0.796403
v -0.235190 0.431571 0.921403
v -0.110190 0.431571 0.921403
v -0.110190 0.431571 0.796403
v -0.235190 0.431571 0.046403
v -0.360190 0.431571 0.046403
v -0.360190 0.431571 -0.078597
v -0.235190 0.431571 -0.078597
v -0.110190 0.431571 1.296403
v 0.014810 0.431571 1.296403
v 0.014810 0.431571 1.171403
v -0.110190 0.431571 1.171403
v -0.235190 0.431571 0.296403
v -0.360190 0.431571 0.296403
v -0.360190 0.431571 0.171403
v -0.235190 0.431571 0.171403
v -0.235190 0.431571 0.546403
v -0.360190 0.431571 0.546403
v -0.360190 0.431571 0.421403
v -0.235190 0.431571 0.421403
v -0.110190 0.431571 1.046403
v 0.014810 0.431571 1.046403
v 0.014810 0.431571 0.921403
v -0.110190 0.431571 0.921403
v -0.235190 0.431571 1.046403
v -0.235190 0.431571 1.171403
v -0.110190 0.431571 1.171403
v -0.110190 0.431571 1.046403
v -0.110190 0.431571 -0.203597
v 0.014810 0.431571 -0.203597
v 0.014810 0.431571 -0.328597
v -0.110190 0.431571 -0.328597
v -0.235190 0.431571 -0.203597
v -0.235190 0.431571 -0.078597
v -0.110190 0.431571 -0.078597
v -0.110190 0.431571 -0.203597
v -0.110190 0.431571 0.046403
v 0.014810 0.431571 0.046403
v 0.014810 0.431571 -0.078597
v -0.110190 0.431571 -0.078597
v -0.235190 0.431571 -0.453597
v -0.360190 0.431571 -0.453597
v -0.360190 0.431571 -0.578597
v -0.235190 0.431571 -0.578597
v -0.235190 0.431571 0.546403
v -0.235190 0.431571 0.671403
v -0.110190 0.431571 0.671403
v -0.110190 0.431571 0.546403
v -0.360190 0.502361 -0.811865
v -0.360190 0.481571 -0.791097
v -0.235190 0.481571 -0.791097
v -0.235190 0.502361 -0.811865
v -0.235190 0.451335 -0.700390
v -0.360190 0.451335 -0.700390
v -0.110190 0.431571 -0.453597
v 0.014810 0.431571 -0.453597
v 0.014810 0.431571 -0.578597
v -0.110190 0.431571 -0.578597
v -0.235190 0.431571 -0.203597
v -0.360190 0.431571 -0.203597
v -0.360190 0.431571 -0.328597
v -0.235190 0.431571 -0.328597
v -0.235190 0.431571 1.046403
v -0.360190 0.431571 1.046403
v -0.360190 0.431571 0.921403
v -0.235190 0.431571 0.921403
v -0.235190 0.431571 -0.641097
v -0.235190 0.431571 -0.578597
v -0.110190 0.431571 -0.578597
v -0.110190 0.431571 -0.641097
v -0.235190 0.451335 -0.700390
v -0.110190 0.451335 -0.700390
v -0.235190 0.431571 1.296403
v -0.360190 0.431571 1.296403
v -0.360190 0.431571 1.171403
v -0.235190 0.431571 1.171403
v -0.235190 0.431571 -0.453597
v -0.235190 0.431571 -0.328597
v -0.110190 0.431571 -0.328597
v -0.110190 0.431571 -0.453597
vn -0.0000 0.9487 -0.3162
vn -0.0000 1.0000 -0.0000
vn -0.0000 0.7067 -0.7075
vn -0.0000 0.7067 0.7075
vn -0.0000 0.9487 0.3162
vt 0.000000 1.000000
vt 0.000000 0.000000
vt 0.000000 0.000000
vt 1.000000 0.000000
vt 1.000000 1.000000
vt 1.000000 0.000000
vt 0.000000 1.000000
vt 1.000000 1.000000
vt 0.000000 0.000000
vt 1.000000 0.000000
vt 1.000000 1.000000
vt 0.000000 1.000000
vt 1.000000 0.000000
vt 1.000000 1.000000
vt 1.000000 0.000000
vt 0.000000 1.000000
vt 0.000000 0.000000
vt 0.000000 0.000000
vt 0.000000 1.000000
vt 1.000000 1.000000
vt 1.000000 0.000000
vt 1.000000 1.000000
vt 1.000000 0.000000
vt 0.000000 1.000000
vt 0.000000 0.000000
vt 0.000000 0.000000
vt 0.000000 1.000000
vt 1.000000 1.000000
vt 0.000000 0.000000
vt 1.000000 0.000000
vt 1.000000 1.000000
vt 0.000000 1.000000
vt 0.000000 0.000000
vt 1.000000 0.000000
vt 1.000000 1.000000
vt 0.000000 1.000000
vt 0.000000 1.000000
vt 0.000000 0.000000
vt 1.000000 0.000000
vt 1.000000 1.000000
vt 1.000000 0.000000
vt 1.000000 1.000000
vt 0.000000 1.000000
vt 0.000000 0.000000
vt 0.000000 0.000000
vt 1.000000 0.000000
vt 1.000000 1.000000
vt 0.000000 1.000000
vt 1.000000 0.000000
vt 1.000000 1.000000
vt 1.000000 0.000000
vt 0.000000 1.000000
vt 0.000000 0.000000
vt 0.000000 0.000000
vt 0.000000 1.000000
vt 1.000000 1.000000
vt 0.000000 1.000000
vt 0.000000 0.000000
vt 1.000000 0.000000
vt 1.000000 1.000000
vt 0.000000 0.000000
vt 1.000000 0.000000
vt 1.000000 1.000000
vt 0.000000 1.000000
vt 0.000000 0.000000
vt 1.000000 0.000000
vt 1.000000 1.000000
vt 0.000000 1.000000
vt 0.000000 0.000000
vt 1.000000 0.000000
vt 1.000000 1.000000
vt 0.000000 1.000000
vt 0.000000 0.000000
vt 1.000000 0.000000
vt 1.000000 1.000000
vt 0.000000 1.000000
vt 0.000000 0.000000
vt 1.000000 0.000000
vt 1.000000 1.000000
vt 0.000000 1.000000
vt 0.000000 1.000000
vt 0.000000 0.000000
vt 1.000000 0.000000
vt 1.000000 1.000000
vt 0.000000 0.000000
vt 1.000000 0.000000
vt 1.000000 1.000000
vt 0.000000 1.000000
vt 0.000000 1.000000
vt 0.000000 0.000000
vt 1.000000 0.000000
vt 1.000000 1.000000
vt 0.000000 0.000000
vt 1.000000 0.000000
vt 1.000000 1.000000
vt 0.000000 1.000000
vt 0.000000 0.000000
vt 1.000000 0.000000
vt 1.000000 1.000000
vt 0.000000 1.000000
vt 0.000000 1.000000
vt 0.000000 0.000000
vt 1.000000 0.000000
vt 1.000000 1.000000
vt 1.000000 0.000000
vt 1.000000 1.000000
vt 1.000000 0.000000
vt 0.000000 1.000000
vt 0.000000 0.000000
vt 0.000000 0.000000
vt 0.000000 1.000000
vt 1.000000 1.000000
vt 0.000000 0.000000
vt 1.000000 0.000000
vt 1.000000 1.000000
vt 0.000000 1.000000
vt 0.000000 0.000000
vt 1.000000 0.000000
vt 1.000000 1.000000
vt 0.000000 1.000000
vt 0.000000 0.000000
vt 1.000000 0.000000
vt 1.000000 1.000000
vt 0.000000 1.000000
vt 0.000000 1.000000
vt 0.000000 0.000000
vt 1.000000 0.000000
vt 1.000000 1.000000
vt 0.000000 0.000000
vt 1.000000 0.000000
vt 0.000000 0.000000
vt 1.000000 0.000000
vt 1.000000 1.000000
vt 0.000000 1.000000
vt 0.000000 1.000000
vt 0.000000 0.000000
vt 1.000000 0.000000
vt 1.000000 1.000000
s 1
usemtl Black.003
f 1/1/1 2/3/1 3/4/1
f 1/1/1 3/4/1 4/5/1
f 5/7/2 1/2/2 6/8/2
f 1/2/2 4/6/2 6/8/2
f 7/9/2 8/10/2 9/11/2
f 7/9/2 9/11/2 10/12/2
f 14/18/3 13/16/3 12/14/3
f 14/18/3 12/14/3 11/13/3
f 16/20/1 12/15/1 15/19/1
f 12/15/1 13/17/1 15/19/1
f 20/26/4 19/24/4 17/21/4
f 19/24/4 18/22/4 17/21/4
f 22/28/5 18/23/5 19/25/5
f 22/28/5 19/25/5 21/27/5
f 23/29/2 24/30/2 26/32/2
f 24/30/2 25/31/2 26/32/2
f 30/36/2 29/35/2 27/33/2
f 29/35/2 28/34/2 27/33/2
f 31/37/2 32/38/2 33/39/2
f 31/37/2 33/39/2 34/40/2
f 38/44/2 37/43/2 35/41/2
f 37/43/2 36/42/2 35/41/2
f 39/45/2 40/46/2 41/47/2
f 39/45/2 41/47/2 42/48/2
f 43/49/3 44/50/3 45/52/3
f 43/49/3 45/52/3 46/54/3
f 47/55/1 45/53/1 48/56/1
f 45/53/1 44/51/1 48/56/1
f 49/57/2 50/58/2 51/59/2
f 49/57/2 51/59/2 52/60/2
f 56/64/2 55/63/2 53/61/2
f 55/63/2 54/62/2 53/61/2
f 57/65/2 58/66/2 59/67/2
f 57/65/2 59/67/2 60/68/2
f 64/72/2 63/71/2 61/69/2
f 63/71/2 62/70/2 61/69/2
f 68/76/2 67/75/2 66/74/2
f 68/76/2 66/74/2 65/73/2
f 69/77/2 70/78/2 71/79/2
f 69/77/2 71/79/2 72/80/2
f 73/81/2 74/82/2 75/83/2
f 73/81/2 75/83/2 76/84/2
f 77/85/2 78/86/2 79/87/2
f 77/85/2 79/87/2 80/88/2
f 81/89/2 82/90/2 83/91/2
f 81/89/2 83/91/2 84/92/2
f 85/93/2 86/94/2 87/95/2
f 85/93/2 87/95/2 88/96/2
f 92/100/2 91/99/2 90/98/2
f 92/100/2 90/98/2 89/97/2
f 93/101/2 94/102/2 95/103/2
f 93/101/2 95/103/2 96/104/2
f 97/105/4 98/106/4 100/110/4
f 98/106/4 99/108/4 100/110/4
f 101/111/5 99/109/5 98/107/5
f 101/111/5 98/107/5 102/112/5
f 103/113/2 104/114/2 106/116/2
f 104/114/2 105/115/2 106/116/2
f 110/120/2 109/119/2 107/117/2
f 109/119/2 108/118/2 107/117/2
f 114/124/2 113/123/2 111/121/2
f 113/123/2 112/122/2 111/121/2
f 115/125/2 116/126/2 117/127/2
f 115/125/2 117/127/2 118/128/2
f 118/128/5 120/130/5 119/129/5
f 118/128/5 119/129/5 115/125/5
f 124/134/2 123/133/2 121/131/2
f 123/133/2 122/132/2 121/131/2
f 125/135/2 126/136/2 127/137/2
f 125/135/2 127/137/2 128/138/2
o Track_Finish_Line_Border
v -0.391690 0.431571 1.358903
v -0.391690 0.481571 1.508903
v -0.360190 0.481571 1.508903
v -0.360190 0.431571 1.358903
v -0.391690 0.431571 -0.641097
v -0.360190 0.431571 -0.641097
v -0.391690 0.481571 -0.791097
v -0.360190 0.481571 -0.791097
v -0.360190 0.502361 -0.811865
v 0.014810 0.502361 -0.811865
v 0.014810 0.481571 -0.791097
v 0.046310 0.481571 -0.791097
v 0.046310 0.524624 -0.834150
v -0.391690 0.524624 -0.834150
v 0.046310 0.431571 -0.641097
v 0.014810 0.431571 -0.641097
v 0.046310 0.431571 1.358903
v 0.014810 0.431571 1.358903
v 0.046310 0.481571 1.508903
v 0.014810 0.481571 1.508903
v -0.360190 0.502361 1.529671
v 0.014810 0.502361 1.529671
v 0.046310 0.524624 1.551956
v -0.391690 0.524624 1.551956
vn -0.0000 0.9487 -0.3162
vn -0.0000 1.0000 -0.0000
vn -0.0000 0.9487 0.3162
vn -0.0000 0.7069 0.7073
vn -0.0000 0.7067 0.7075
vn 0.0003 0.7069 0.7073
vn -0.0000 0.7069 0.7074
vn -0.0000 0.7068 0.7074
vn -0.0000 0.7068 0.7075
vn -0.0000 0.7067 -0.7075
vn 0.0001 0.7069 -0.7073
vn -0.0000 0.7068 -0.7075
vn -0.0003 0.7069 -0.7073
vn -0.0000 0.7068 -0.7074
vt 0.000000 0.000000
vt 1.000000 1.000000
vt 1.000000 0.000000
vt 1.000000 1.000000
vt 1.000000 0.071918
vt 0.000000 1.000000
vt 1.000000 0.000000
vt 0.000000 1.000000
vt 0.000000 0.000000
vt 0.000000 0.000000
vt 0.000000 1.000000
vt 1.000000 0.000000
vt 1.000000 1.000000
vt 1.000000 0.071918
vt 0.517359 0.071918
vt 0.517359 0.928082
vt 1.000000 0.928082
vt 1.000000 1.000000
vt 1.000000 1.000000
vt 1.000000 0.000000
vt 0.000000 1.000000
vt 0.000000 0.000000
vt 0.000000 0.000000
vt 0.000000 1.000000
vt 0.000000 1.000000
vt 0.000000 0.000000
vt 1.000000 1.000000
vt 0.000000 0.000000
vt 1.000000 0.000000
vt 0.000000 1.000000
vt 1.000000 0.000000
vt 1.000000 1.000000
vt 1.000000 1.000000
vt 1.000000 0.928082
vt 0.517359 0.071918
vt 0.517359 0.928082
vt 0.000000 1.000000
vt 0.000000 0.000000
s 1
usemtl Grey_-_40.002
f 129/139/6 130/141/6 132/144/6
f 130/141/6 131/142/6 132/144/6
f 132/145/7 134/148/7 129/140/7
f 134/148/7 133/146/7 129/140/7
f 134/149/8 136/151/8 133/147/8
f 136/151/8 135/150/8 133/147/8
f 138/154/9 139/155/10 140/157/11
f 137/153/12 138/154/9 141/159/13
f 137/153/12 141/159/13 142/160/13
f 142/160/13 135/150/14 137/153/12
f 135/150/10 136/152/10 137/153/10
f 138/154/9 140/157/11 141/159/13
f 143/161/8 140/158/8 139/156/8
f 143/161/8 139/156/8 144/163/8
f 145/165/7 143/162/7 146/167/7
f 143/162/7 144/164/7 146/167/7
f 146/168/6 148/171/6 145/166/6
f 148/171/6 147/169/6 145/166/6
f 147/170/15 148/172/15 150/174/15
f 151/175/16 150/174/15 149/173/17
f 149/173/17 130/141/18 152/176/19
f 149/173/17 131/143/15 130/141/18
f 152/176/19 151/175/16 149/173/17
f 151/175/16 147/170/17 150/174/15
