# Blender 3.5.1
# www.blender.org
mtllib finish_linee.mtl
o Track_Finish_Line_Black
v 1.327268 0.431398 -0.204589
v 1.386561 0.411634 -0.204573
v 1.386644 0.411979 -0.079574
v 1.327351 0.431744 -0.079589
v 1.264768 0.431398 -0.204547
v 1.264851 0.431744 -0.079548
v 0.264851 0.431744 -0.078887
v 0.264934 0.432090 0.046113
v 0.139934 0.432090 0.046196
v 0.139851 0.431744 -0.078804
v 1.497954 0.360262 -0.329505
v 1.477186 0.381052 -0.329549
v 1.477269 0.381398 -0.204549
v 1.498037 0.360608 -0.204506
v 1.386561 0.411634 -0.204573
v 1.386479 0.411288 -0.329573
v -0.843334 0.361300 0.047042
v -0.822566 0.382090 0.046970
v -0.822648 0.381744 -0.078029
v -0.843416 0.360954 -0.077958
v -0.731941 0.411980 -0.078173
v -0.731858 0.412326 0.046827
v 0.514851 0.431744 -0.079052
v 0.514934 0.432090 0.045948
v 0.389934 0.432090 0.046030
v 0.389851 0.431744 -0.078969
v 0.764769 0.431398 -0.204217
v 0.764686 0.431052 -0.329216
v 0.639686 0.431052 -0.329134
v 0.639769 0.431398 -0.204134
v 0.014769 0.431398 -0.203721
v 0.139769 0.431398 -0.203803
v 0.139851 0.431744 -0.078804
v 0.014851 0.431744 -0.078721
v 0.389851 0.431744 -0.078969
v 0.389769 0.431398 -0.203969
v 0.264769 0.431398 -0.203886
v 0.264851 0.431744 -0.078887
v 0.764851 0.431744 -0.079217
v 0.764934 0.432090 0.045782
v 0.639934 0.432090 0.045865
v 0.639851 0.431744 -0.079135
v 1.498202 0.361300 0.045493
v 1.477434 0.382090 0.045450
v 1.477351 0.381744 -0.079550
v 1.498120 0.360954 -0.079506
v 1.386644 0.411979 -0.079574
v 1.386726 0.412325 0.045426
v 0.764769 0.431398 -0.204217
v 0.889769 0.431398 -0.204299
v 0.889851 0.431744 -0.079300
v 0.764851 0.431744 -0.079217
v 0.014769 0.431398 -0.203721
v 0.014686 0.431052 -0.328720
v -0.110314 0.431052 -0.328638
v -0.110231 0.431398 -0.203638
v 1.264851 0.431744 -0.079548
v 1.264934 0.432090 0.045452
v 1.139934 0.432090 0.045534
v 1.139851 0.431744 -0.079465
v 0.264769 0.431398 -0.203886
v 0.264686 0.431052 -0.328886
v 0.139686 0.431052 -0.328803
v 0.139769 0.431398 -0.203803
v 0.514769 0.431398 -0.204051
v 0.514686 0.431052 -0.329051
v 0.389686 0.431052 -0.328968
v 0.389769 0.431398 -0.203969
v 1.014851 0.431744 -0.079382
v 1.014934 0.432090 0.045617
v 0.889934 0.432090 0.045700
v 0.889851 0.431744 -0.079300
v 1.014769 0.431398 -0.204382
v 1.139768 0.431398 -0.204465
v 1.139851 0.431744 -0.079465
v 1.014851 0.431744 -0.079382
v -0.235148 0.431744 -0.078556
v -0.235066 0.432090 0.046443
v -0.360066 0.432090 0.046526
v -0.360148 0.431744 -0.078473
v -0.235231 0.431398 -0.203555
v -0.110231 0.431398 -0.203638
v -0.110148 0.431744 -0.078639
v -0.235148 0.431744 -0.078556
v 0.014851 0.431744 -0.078721
v 0.014934 0.432090 0.046278
v -0.110066 0.432090 0.046361
v -0.110148 0.431744 -0.078639
v -0.485231 0.431398 -0.203390
v -0.485314 0.431052 -0.328390
v -0.610314 0.431052 -0.328307
v -0.610231 0.431398 -0.203308
v 0.514769 0.431398 -0.204051
v 0.639769 0.431398 -0.204134
v 0.639851 0.431744 -0.079135
v 0.514851 0.431744 -0.079052
v -0.843582 0.360262 -0.327957
v -0.822813 0.381052 -0.328028
v -0.822731 0.381398 -0.203029
v -0.843499 0.360608 -0.202957
v -0.732024 0.411634 -0.203172
v -0.732106 0.411288 -0.328172
v -0.485148 0.431744 -0.078391
v -0.485066 0.432090 0.046609
v -0.610066 0.432090 0.046691
v -0.610148 0.431744 -0.078308
v -0.235231 0.431398 -0.203555
v -0.235314 0.431052 -0.328555
v -0.360314 0.431052 -0.328472
v -0.360231 0.431398 -0.203473
v 1.014769 0.431398 -0.204382
v 1.014686 0.431052 -0.329381
v 0.889686 0.431052 -0.329299
v 0.889769 0.431398 -0.204299
v -0.672731 0.431398 -0.203266
v -0.610231 0.431398 -0.203308
v -0.610148 0.431744 -0.078308
v -0.672648 0.431744 -0.078267
v -0.732024 0.411634 -0.203172
v -0.731941 0.411980 -0.078173
v 1.264768 0.431398 -0.204547
v 1.264686 0.431052 -0.329547
v 1.139686 0.431052 -0.329464
v 1.139768 0.431398 -0.204465
v -0.485231 0.431398 -0.203390
v -0.360231 0.431398 -0.203473
v -0.360148 0.431744 -0.078473
v -0.485148 0.431744 -0.078391
vn -0.3162 -0.9487 0.0028
vn -0.0000 -1.0000 0.0028
vn -0.7075 -0.7067 0.0024
vn 0.7075 -0.7067 0.0015
vn 0.3162 -0.9487 0.0024
vt 0.000000 1.000000
vt 0.000000 0.000000
vt 0.000000 0.000000
vt 1.000000 0.000000
vt 1.000000 1.000000
vt 1.000000 0.000000
vt 0.000000 1.000000
vt 1.000000 1.000000
vt 0.000000 0.000000
vt 1.000000 0.000000
vt 1.000000 1.000000
vt 0.000000 1.000000
vt 1.000000 0.000000
vt 1.000000 1.000000
vt 1.000000 0.000000
vt 0.000000 1.000000
vt 0.000000 0.000000
vt 0.000000 0.000000
vt 0.000000 1.000000
vt 1.000000 1.000000
vt 1.000000 0.000000
vt 1.000000 1.000000
vt 1.000000 0.000000
vt 0.000000 1.000000
vt 0.000000 0.000000
vt 0.000000 0.000000
vt 0.000000 1.000000
vt 1.000000 1.000000
vt 0.000000 0.000000
vt 1.000000 0.000000
vt 1.000000 1.000000
vt 0.000000 1.000000
vt 0.000000 0.000000
vt 1.000000 0.000000
vt 1.000000 1.000000
vt 0.000000 1.000000
vt 0.000000 1.000000
vt 0.000000 0.000000
vt 1.000000 0.000000
vt 1.000000 1.000000
vt 1.000000 0.000000
vt 1.000000 1.000000
vt 0.000000 1.000000
vt 0.000000 0.000000
vt 0.000000 0.000000
vt 1.000000 0.000000
vt 1.000000 1.000000
vt 0.000000 1.000000
vt 1.000000 0.000000
vt 1.000000 1.000000
vt 1.000000 0.000000
vt 0.000000 1.000000
vt 0.000000 0.000000
vt 0.000000 0.000000
vt 0.000000 1.000000
vt 1.000000 1.000000
vt 0.000000 1.000000
vt 0.000000 0.000000
vt 1.000000 0.000000
vt 1.000000 1.000000
vt 0.000000 0.000000
vt 1.000000 0.000000
vt 1.000000 1.000000
vt 0.000000 1.000000
vt 0.000000 0.000000
vt 1.000000 0.000000
vt 1.000000 1.000000
vt 0.000000 1.000000
vt 0.000000 0.000000
vt 1.000000 0.000000
vt 1.000000 1.000000
vt 0.000000 1.000000
vt 0.000000 0.000000
vt 1.000000 0.000000
vt 1.000000 1.000000
vt 0.000000 1.000000
vt 0.000000 0.000000
vt 1.000000 0.000000
vt 1.000000 1.000000
vt 0.000000 1.000000
vt 0.000000 1.000000
vt 0.000000 0.000000
vt 1.000000 0.000000
vt 1.000000 1.000000
vt 0.000000 0.000000
vt 1.000000 0.000000
vt 1.000000 1.000000
vt 0.000000 1.000000
vt 0.000000 1.000000
vt 0.000000 0.000000
vt 1.000000 0.000000
vt 1.000000 1.000000
vt 0.000000 0.000000
vt 1.000000 0.000000
vt 1.000000 1.000000
vt 0.000000 1.000000
vt 0.000000 0.000000
vt 1.000000 0.000000
vt 1.000000 1.000000
vt 0.000000 1.000000
vt 0.000000 1.000000
vt 0.000000 0.000000
vt 1.000000 0.000000
vt 1.000000 1.000000
vt 1.000000 0.000000
vt 1.000000 1.000000
vt 1.000000 0.000000
vt 0.000000 1.000000
vt 0.000000 0.000000
vt 0.000000 0.000000
vt 0.000000 1.000000
vt 1.000000 1.000000
vt 0.000000 0.000000
vt 1.000000 0.000000
vt 1.000000 1.000000
vt 0.000000 1.000000
vt 0.000000 0.000000
vt 1.000000 0.000000
vt 1.000000 1.000000
vt 0.000000 1.000000
vt 0.000000 0.000000
vt 1.000000 0.000000
vt 1.000000 1.000000
vt 0.000000 1.000000
vt 0.000000 1.000000
vt 0.000000 0.000000
vt 1.000000 0.000000
vt 1.000000 1.000000
vt 0.000000 0.000000
vt 1.000000 0.000000
vt 0.000000 0.000000
vt 1.000000 0.000000
vt 1.000000 1.000000
vt 0.000000 1.000000
vt 0.000000 1.000000
vt 0.000000 0.000000
vt 1.000000 0.000000
vt 1.000000 1.000000
s 1
usemtl Black.003
f 1/1/1 2/3/1 3/4/1
f 1/1/1 3/4/1 4/5/1
f 5/7/2 1/2/2 6/8/2
f 1/2/2 4/6/2 6/8/2
f 7/9/2 8/10/2 9/11/2
f 7/9/2 9/11/2 10/12/2
f 14/18/3 13/16/3 12/14/3
f 14/18/3 12/14/3 11/13/3
f 16/20/1 12/15/1 15/19/1
f 12/15/1 13/17/1 15/19/1
f 20/26/4 19/24/4 17/21/4
f 19/24/4 18/22/4 17/21/4
f 22/28/5 18/23/5 19/25/5
f 22/28/5 19/25/5 21/27/5
f 23/29/2 24/30/2 26/32/2
f 24/30/2 25/31/2 26/32/2
f 30/36/2 29/35/2 27/33/2
f 29/35/2 28/34/2 27/33/2
f 31/37/2 32/38/2 33/39/2
f 31/37/2 33/39/2 34/40/2
f 38/44/2 37/43/2 35/41/2
f 37/43/2 36/42/2 35/41/2
f 39/45/2 40/46/2 41/47/2
f 39/45/2 41/47/2 42/48/2
f 43/49/3 44/50/3 45/52/3
f 43/49/3 45/52/3 46/54/3
f 47/55/1 45/53/1 48/56/1
f 45/53/1 44/51/1 48/56/1
f 49/57/2 50/58/2 51/59/2
f 49/57/2 51/59/2 52/60/2
f 56/64/2 55/63/2 53/61/2
f 55/63/2 54/62/2 53/61/2
f 57/65/2 58/66/2 59/67/2
f 57/65/2 59/67/2 60/68/2
f 64/72/2 63/71/2 61/69/2
f 63/71/2 62/70/2 61/69/2
f 68/76/2 67/75/2 66/74/2
f 68/76/2 66/74/2 65/73/2
f 69/77/2 70/78/2 71/79/2
f 69/77/2 71/79/2 72/80/2
f 73/81/2 74/82/2 75/83/2
f 73/81/2 75/83/2 76/84/2
f 77/85/2 78/86/2 79/87/2
f 77/85/2 79/87/2 80/88/2
f 81/89/2 82/90/2 83/91/2
f 81/89/2 83/91/2 84/92/2
f 85/93/2 86/94/2 87/95/2
f 85/93/2 87/95/2 88/96/2
f 92/100/2 91/99/2 90/98/2
f 92/100/2 90/98/2 89/97/2
f 93/101/2 94/102/2 95/103/2
f 93/101/2 95/103/2 96/104/2
f 97/105/4 98/106/4 100/110/4
f 98/106/4 99/108/4 100/110/4
f 101/111/5 99/109/5 98/107/5
f 101/111/5 98/107/5 102/112/5
f 103/113/2 104/114/2 106/116/2
f 104/114/2 105/115/2 106/116/2
f 110/120/2 109/119/2 107/117/2
f 109/119/2 108/118/2 107/117/2
f 114/124/2 113/123/2 111/121/2
f 113/123/2 112/122/2 111/121/2
f 115/125/2 116/126/2 117/127/2
f 115/125/2 117/127/2 118/128/2
f 118/128/5 120/130/5 119/129/5
f 118/128/5 119/129/5 115/125/5
f 124/134/2 123/133/2 121/131/2
f 123/133/2 122/132/2 121/131/2
f 125/135/2 126/136/2 127/137/2
f 125/135/2 127/137/2 128/138/2
o Track_Finish_Line_Border
v 1.327310 0.430965 -0.360096
v 1.477310 0.380965 -0.359958
v 1.477310 0.381052 -0.328458
v 1.327310 0.431052 -0.328596
v -0.672690 0.430965 -0.360096
v -0.672690 0.431052 -0.328596
v -0.822690 0.380965 -0.359958
v -0.822690 0.381052 -0.328458
v -0.843458 0.360262 -0.328400
v -0.843458 0.361300 0.046598
v -0.822690 0.382090 0.046541
v -0.822690 0.382177 0.078040
v -0.865743 0.339124 0.078160
v -0.865743 0.337912 -0.359839
v -0.672690 0.432177 0.077902
v -0.672690 0.432090 0.046402
v 1.327310 0.432177 0.077902
v 1.327310 0.432090 0.046402
v 1.477310 0.382177 0.078040
v 1.477310 0.382090 0.046540
v 1.498078 0.360262 -0.328401
v 1.498078 0.361300 0.046598
v 1.520363 0.339124 0.078159
v 1.520363 0.337912 -0.359839
vn -0.3162 -0.9487 0.0026
vn -0.0000 -1.0000 0.0028
vn 0.3162 -0.9487 0.0026
vn 0.7073 -0.7069 0.0020
vn 0.7075 -0.7067 0.0020
vn 0.7073 -0.7069 0.0022
vn 0.7074 -0.7069 0.0019
vn 0.7074 -0.7068 0.0020
vn 0.7074 -0.7068 0.0019
vn 0.7075 -0.7068 0.0019
vn -0.7075 -0.7067 0.0020
vn -0.7073 -0.7069 0.0020
vn -0.7075 -0.7067 0.0019
vn -0.7075 -0.7068 0.0020
vn -0.7073 -0.7069 0.0017
vn -0.7074 -0.7068 0.0019
vt 0.000000 0.000000
vt 1.000000 1.000000
vt 1.000000 0.000000
vt 1.000000 1.000000
vt 1.000000 0.071918
vt 0.000000 1.000000
vt 1.000000 0.000000
vt 0.000000 1.000000
vt 0.000000 0.000000
vt 0.000000 0.000000
vt 0.000000 1.000000
vt 1.000000 0.000000
vt 1.000000 1.000000
vt 1.000000 0.071918
vt 0.517359 0.071918
vt 0.517359 0.928082
vt 1.000000 0.928082
vt 1.000000 1.000000
vt 1.000000 1.000000
vt 1.000000 0.000000
vt 0.000000 1.000000
vt 0.000000 0.000000
vt 0.000000 0.000000
vt 0.000000 1.000000
vt 0.000000 1.000000
vt 0.000000 0.000000
vt 1.000000 1.000000
vt 0.000000 0.000000
vt 1.000000 0.000000
vt 0.000000 1.000000
vt 1.000000 0.000000
vt 1.000000 1.000000
vt 1.000000 1.000000
vt 1.000000 0.928082
vt 0.517359 0.071918
vt 0.517359 0.928082
vt 0.000000 1.000000
vt 0.000000 0.000000
s 1
usemtl Grey_-_40.002
f 129/139/6 130/141/6 132/144/6
f 130/141/6 131/142/6 132/144/6
f 132/145/7 134/148/7 129/140/7
f 134/148/7 133/146/7 129/140/7
f 134/149/8 136/151/8 133/147/8
f 136/151/8 135/150/8 133/147/8
f 138/154/9 139/155/10 140/157/11
f 137/153/12 138/154/9 141/159/13
f 137/153/12 141/159/13 142/160/14
f 142/160/14 135/150/15 137/153/12
f 135/150/10 136/152/10 137/153/10
f 138/154/9 140/157/11 141/159/13
f 143/161/8 140/158/8 139/156/8
f 143/161/8 139/156/8 144/163/8
f 145/165/7 143/162/7 146/167/7
f 143/162/7 144/164/7 146/167/7
f 146/168/6 148/171/6 145/166/6
f 148/171/6 147/169/6 145/166/6
f 147/170/16 148/172/16 150/174/16
f 151/175/17 150/174/18 149/173/19
f 149/173/19 130/141/20 152/176/21
f 149/173/19 131/143/16 130/141/20
f 152/176/21 151/175/17 149/173/19
f 151/175/17 147/170/19 150/174/18
