# Blender 3.5.1
# www.blender.org
mtllib lighthouse_part_2.mtl
o Base
v -2.448634 1.186085 3.893757
v -1.912883 1.186085 4.429509
v -1.826028 1.280849 4.299521
v -2.318647 1.280849 3.806902
v 0.157916 1.280849 4.299521
v 0.650535 1.280849 3.806902
v 0.917138 1.280849 3.163265
v 0.917138 1.280849 2.466597
v 0.650535 1.280849 1.822959
v 0.157916 1.280849 1.330340
v -0.485722 1.280849 1.063737
v -1.182390 1.280849 1.063737
v -1.826028 1.280849 1.330340
v -2.318647 1.280849 1.822959
v -2.585250 1.280849 2.466597
v -2.585250 1.280849 3.163265
v -1.182390 1.280849 4.566125
v -0.485722 1.280849 4.566125
v -0.834056 1.280849 2.814931
v 1.070468 1.186085 3.193764
v 1.070468 1.186085 2.436097
v 1.165944 0.995134 3.212755
v 1.165944 0.995134 2.417106
v 1.165944 0.023706 2.993502
v 1.165944 0.023706 2.636359
v 1.165944 -0.719151 2.636359
v 1.165944 -0.719151 2.417106
v 1.165944 -0.719151 3.212756
v 1.165944 -0.719151 2.993502
v 0.861462 0.995134 1.682022
v 0.861462 -0.719151 1.682022
v 0.298853 0.995134 1.119413
v 0.298853 -0.719151 1.119413
v -0.436231 0.995134 0.814931
v -0.436231 -0.719152 0.814931
v -1.231881 0.995134 0.814931
v -1.231881 -0.719152 0.814931
v -1.966965 0.995134 1.119413
v -1.966965 -0.719151 1.119413
v -2.529574 0.995134 1.682022
v -2.529574 -0.719151 1.682022
v -2.834056 0.995134 2.417106
v -2.834056 -0.719151 2.417106
v -2.834056 0.995134 3.212755
v -2.834056 -0.719151 3.212756
v -2.529574 0.995134 3.947840
v -2.529574 -0.719151 3.947840
v -1.966965 0.995134 4.510449
v -1.966965 -0.719151 4.510449
v -1.231881 0.995134 4.814931
v -1.231881 -0.719151 4.814931
v -0.436231 0.995134 4.814931
v -0.436231 -0.719151 4.814931
v 0.298853 0.995134 4.510449
v 0.298853 -0.719151 4.510449
v 0.861462 0.995134 3.947840
v 0.861462 -0.719151 3.947840
v 0.780522 1.186085 3.893757
v 0.244770 1.186085 4.429509
v -0.455223 1.186085 4.719455
v -1.212890 1.186085 4.719455
v -2.738581 1.186085 3.193764
v -2.738581 1.186085 2.436097
v -2.448634 1.186085 1.736104
v -1.912883 1.186085 1.200353
v -1.212890 1.186085 0.910406
v -0.455223 1.186085 0.910406
v 0.244770 1.186085 1.200353
v 0.780522 1.186085 1.736104
vn -0.3717 0.8507 0.3717
vn -0.0000 1.0000 -0.0000
vn 0.5257 0.8507 -0.0000
vn 0.8944 0.4472 -0.0000
vn 1.0000 -0.0000 -0.0000
vn 0.9239 -0.0000 -0.3827
vn 0.7071 -0.0000 -0.7071
vn 0.3827 -0.0000 -0.9239
vn -0.0000 -0.0000 -1.0000
vn -0.3827 -0.0000 -0.9239
vn -0.7071 -0.0000 -0.7071
vn -0.9239 -0.0000 -0.3827
vn -1.0000 -0.0000 -0.0000
vn -0.9239 -0.0000 0.3827
vn -0.7071 -0.0000 0.7071
vn -0.3827 -0.0000 0.9239
vn -0.0000 -0.0000 1.0000
vn 0.3827 -0.0000 0.9239
vn 0.7071 -0.0000 0.7071
vn 0.6325 0.4472 0.6325
vn 0.3423 0.4472 0.8263
vn -0.0000 0.4472 0.8944
vn -0.3423 0.4472 0.8263
vn -0.8263 0.4472 0.3423
vn -0.8944 0.4472 -0.0000
vn -0.8263 0.4472 -0.3423
vn -0.6325 0.4472 -0.6325
vn -0.3423 0.4472 -0.8263
vn -0.0000 0.4472 -0.8944
vn 0.3423 0.4472 -0.8263
vn 0.6325 0.4472 -0.6325
vn 0.9239 -0.0000 0.3827
vn 0.8263 0.4472 -0.3423
vn 0.8263 0.4472 0.3423
vn 0.4857 0.8507 -0.2012
vn 0.3717 0.8507 -0.3717
vn 0.2012 0.8507 -0.4857
vn -0.0000 0.8506 -0.5257
vn -0.0000 0.8507 -0.5257
vn -0.2012 0.8507 -0.4857
vn -0.3717 0.8507 -0.3717
vn -0.4857 0.8507 -0.2012
vn -0.5257 0.8507 -0.0000
vn -0.0000 0.8507 0.5257
vn -0.0000 0.8506 0.5257
vn 0.2012 0.8507 0.4857
vn 0.3717 0.8507 0.3717
vn 0.4857 0.8507 0.2012
vn -0.4857 0.8507 0.2012
vn -0.6325 0.4472 0.6325
vn -0.2012 0.8507 0.4857
vt 0.000000 1.000000
vt 1.000000 0.000000
vt 0.000000 0.000000
vt 1.000000 0.000000
vt 0.000000 1.000000
vt 0.000005 0.000000
vt 0.959746 1.000000
vt 0.923880 0.216773
vt 0.040259 1.000000
vt 0.040254 1.000000
vt 0.783227 0.076120
vt 0.959746 1.000000
vt 0.923880 0.783227
vt 0.959746 1.000000
vt 0.040254 1.000000
vt 0.783227 0.923880
vt 0.959746 1.000000
vt 0.040254 1.000000
vt 0.599456 1.000000
vt 0.040254 1.000000
vt 0.959746 1.000000
vt 0.400544 1.000000
vt 0.959746 1.000000
vt 0.040259 1.000000
vt 0.216773 0.923880
vt 0.959746 1.000000
vt 0.040254 1.000000
vt 0.076120 0.783227
vt 0.959746 1.000000
vt 0.040254 1.000000
vt 0.000000 0.599456
vt 0.959746 1.000000
vt 0.040254 1.000000
vt 0.000000 0.400544
vt 0.959746 1.000000
vt 0.040254 1.000000
vt 0.076120 0.216773
vt 0.959746 1.000000
vt 0.040254 1.000000
vt 0.216773 0.076120
vt 0.959746 1.000000
vt 0.040254 1.000000
vt 0.400544 0.000000
vt 0.959746 1.000000
vt 0.040254 1.000000
vt 0.599456 0.000000
vt 0.959746 1.000000
vt 0.040254 1.000000
vt 1.000000 0.400544
vt 0.040254 1.000000
vt 0.959746 1.000000
vt 1.000000 0.599456
vt 0.959746 1.000000
vt 0.040254 1.000000
vt 0.500000 0.500000
vt 0.000000 0.000000
vt 0.000000 1.000000
vt 1.000000 0.000000
vt 1.000000 0.000000
vt 0.000000 1.000000
vt 0.000005 0.000000
vt 1.000000 0.000000
vt 0.000000 0.000000
vt 0.000000 1.000000
vt 1.000000 1.000000
vt 1.000000 1.000000
vt 0.000000 1.000000
vt 0.000000 0.000000
vt 1.000000 0.000000
vt 0.566667 0.275565
vt 0.566667 0.724435
vt 1.000000 0.724435
vt 1.000000 1.000000
vt 1.000000 0.000000
vt 1.000000 0.000000
vt 1.000000 1.000000
vt 1.000000 0.275565
vt 0.000000 1.000000
vt 0.000000 0.000000
vt 1.000000 0.000000
vt 1.000000 1.000000
vt 1.000000 1.000000
vt 1.000000 0.000000
vt 0.000000 1.000000
vt 0.000000 0.000000
vt 1.000000 0.000000
vt 1.000000 1.000000
vt 1.000000 1.000000
vt 1.000000 0.000000
vt 0.000000 1.000000
vt 0.000000 0.000000
vt 1.000000 0.000000
vt 1.000000 1.000000
vt 1.000000 1.000000
vt 1.000000 0.000000
vt 0.000000 1.000000
vt 0.000000 0.000000
vt 1.000000 0.000000
vt 1.000000 1.000000
vt 1.000000 1.000000
vt 1.000000 0.000000
vt 0.000000 1.000000
vt 0.000000 0.000000
vt 1.000000 0.000000
vt 1.000000 1.000000
vt 1.000000 1.000000
vt 1.000000 0.000000
vt 0.000000 1.000000
vt 0.000000 0.000000
vt 1.000000 0.000000
vt 1.000000 1.000000
vt 1.000000 1.000000
vt 1.000000 0.000000
vt 0.000000 1.000000
vt 0.000000 0.000000
vt 1.000000 0.000000
vt 1.000000 1.000000
vt 1.000000 1.000000
vt 1.000000 0.000000
vt 0.000000 1.000000
vt 0.000000 0.000000
vt 1.000000 0.000000
vt 1.000000 1.000000
vt 1.000000 1.000000
vt 1.000000 0.000000
vt 0.000000 1.000000
vt 0.000000 0.000000
vt 1.000000 1.000000
vt 1.000000 0.000000
vt 1.000000 1.000000
vt 1.000000 0.000000
vt 0.000000 1.000000
vt 0.000000 0.000000
vt 1.000000 0.000000
vt 1.000000 1.000000
vt 1.000000 1.000000
vt 1.000000 0.000000
vt 0.000000 1.000000
vt 0.000000 0.000000
vt 1.000000 0.000000
vt 1.000000 1.000000
vt 1.000000 1.000000
vt 1.000000 0.000000
vt 0.000000 1.000000
vt 0.000000 0.000000
vt 1.000000 0.000000
vt 1.000000 1.000000
vt 1.000000 1.000000
vt 1.000000 0.000000
vt 0.000000 1.000000
vt 0.000000 0.000000
vt 1.000000 0.000000
vt 1.000000 1.000000
vt 1.000000 1.000000
vt 1.000000 0.000000
vt 0.000000 1.000000
vt 1.000000 1.000000
vt 0.000000 0.000000
vt 1.000000 0.000000
vt 1.000000 1.000000
vt 1.000000 0.000000
vt 0.000000 1.000000
vt 1.000000 0.000000
vt 0.000000 0.000000
vt 0.000000 1.000000
vt 1.000000 0.000000
vt 0.000000 0.000000
vt 0.000000 1.000000
vt 1.000000 0.000000
vt 0.000000 0.000000
vt 0.000000 1.000000
vt 0.000000 0.000000
vt 1.000000 0.000000
vt 0.000000 1.000000
vt 1.000000 0.000000
vt 0.000000 0.000000
vt 0.000000 1.000000
vt 1.000000 0.000000
vt 0.000000 0.000000
vt 0.000000 1.000000
vt 1.000000 0.000000
vt 0.000000 0.000000
vt 0.000000 1.000000
vt 1.000000 0.000000
vt 0.000000 0.000000
vt 0.000000 1.000000
vt 1.000000 0.000000
vt 0.000000 0.000000
vt 0.000000 1.000000
vt 1.000000 0.000000
vt 0.000000 0.000000
vt 0.000000 1.000000
vt 1.000000 0.000000
vt 0.000000 0.000000
vt 0.000000 1.000000
vt 1.000000 0.000000
vt 0.000000 0.000000
s 1
usemtl Rock.002
f 1/3/1 2/4/1 3/7/1
f 1/3/1 3/7/1 4/10/1
f 5/13/2 6/16/2 19/55/2
f 17/49/2 18/52/2 19/55/2
f 3/8/2 17/49/2 19/55/2
f 4/11/2 3/8/2 19/55/2
f 16/46/2 4/11/2 19/55/2
f 15/43/2 16/46/2 19/55/2
f 14/40/2 15/43/2 19/55/2
f 13/37/2 14/40/2 19/55/2
f 12/34/2 13/37/2 19/55/2
f 11/31/2 12/34/2 19/55/2
f 10/28/2 11/31/2 19/55/2
f 9/25/2 10/28/2 19/55/2
f 8/22/2 9/25/2 19/55/2
f 7/19/2 8/22/2 19/55/2
f 6/16/2 7/19/2 19/55/2
f 18/52/2 5/13/2 19/55/2
f 20/56/3 21/59/3 7/20/3
f 21/59/3 8/23/3 7/20/3
f 21/60/4 20/56/4 22/62/4
f 21/60/4 22/62/4 23/66/4
f 25/71/5 26/72/5 27/73/5
f 24/70/5 25/71/5 23/67/5
f 24/70/5 22/63/5 28/75/5
f 24/70/5 23/67/5 22/63/5
f 28/75/5 29/77/5 24/70/5
f 25/71/5 27/73/5 23/67/5
f 30/78/6 23/68/6 27/74/6
f 30/78/6 27/74/6 31/82/6
f 32/84/7 30/79/7 31/83/7
f 32/84/7 31/83/7 33/88/7
f 34/90/8 32/85/8 33/89/8
f 34/90/8 33/89/8 35/94/8
f 36/96/9 34/91/9 35/95/9
f 36/96/9 35/95/9 37/100/9
f 38/102/10 36/97/10 39/106/10
f 36/97/10 37/101/10 39/106/10
f 40/108/11 38/103/11 41/112/11
f 38/103/11 39/107/11 41/112/11
f 42/114/12 40/109/12 43/118/12
f 40/109/12 41/113/12 43/118/12
f 44/120/13 42/115/13 45/124/13
f 42/115/13 43/119/13 45/124/13
f 46/126/14 44/121/14 45/125/14
f 46/126/14 45/125/14 47/130/14
f 48/132/15 46/127/15 47/131/15
f 48/132/15 47/131/15 49/136/15
f 50/138/16 48/133/16 49/137/16
f 50/138/16 49/137/16 51/142/16
f 52/144/17 50/139/17 51/143/17
f 52/144/17 51/143/17 53/148/17
f 54/150/18 52/145/18 55/154/18
f 52/145/18 53/149/18 55/154/18
f 56/156/19 54/151/19 57/160/19
f 54/151/19 55/155/19 57/160/19
f 58/162/20 59/167/20 54/152/20
f 58/162/20 54/152/20 56/157/20
f 59/165/21 60/170/21 52/146/21
f 59/165/21 52/146/21 54/153/21
f 60/168/22 61/172/22 52/147/22
f 61/172/22 50/140/22 52/147/22
f 61/171/23 2/6/23 50/141/23
f 2/6/23 48/134/23 50/141/23
f 1/1/24 62/176/24 46/128/24
f 62/176/24 44/122/24 46/128/24
f 62/174/25 63/179/25 44/123/25
f 63/179/25 42/116/25 44/123/25
f 63/177/26 64/182/26 42/117/26
f 64/182/26 40/110/26 42/117/26
f 64/180/27 65/185/27 40/111/27
f 65/185/27 38/104/27 40/111/27
f 65/183/28 66/188/28 38/105/28
f 66/188/28 36/98/28 38/105/28
f 66/186/29 67/191/29 34/92/29
f 66/186/29 34/92/29 36/99/29
f 67/189/30 68/194/30 32/86/30
f 67/189/30 32/86/30 34/93/30
f 68/192/31 69/197/31 30/80/31
f 68/192/31 30/80/31 32/87/31
f 22/64/32 56/158/32 28/76/32
f 56/158/32 57/161/32 28/76/32
f 69/195/33 21/61/33 23/69/33
f 69/195/33 23/69/33 30/81/33
f 20/57/34 58/164/34 56/159/34
f 20/57/34 56/159/34 22/65/34
f 21/61/35 69/196/35 8/24/35
f 69/196/35 9/26/35 8/24/35
f 69/197/36 68/193/36 9/27/36
f 68/193/36 10/29/36 9/27/36
f 68/194/37 67/190/37 10/30/37
f 67/190/37 11/32/37 10/30/37
f 67/191/38 66/187/39 11/33/38
f 66/187/39 12/35/39 11/33/38
f 66/188/40 65/184/40 13/38/40
f 66/188/40 13/38/40 12/36/40
f 65/185/41 64/181/41 14/41/41
f 65/185/41 14/41/41 13/39/41
f 64/182/42 63/178/42 15/44/42
f 64/182/42 15/44/42 14/42/42
f 63/179/43 62/175/43 16/47/43
f 63/179/43 16/47/43 15/45/43
f 61/172/44 60/169/45 18/53/45
f 61/172/44 18/53/45 17/50/44
f 60/170/46 59/166/46 18/54/46
f 59/166/46 5/14/46 18/54/46
f 59/167/47 58/163/47 5/15/47
f 58/163/47 6/17/47 5/15/47
f 58/164/48 20/58/48 6/18/48
f 20/58/48 7/21/48 6/18/48
f 62/176/49 1/2/49 4/12/49
f 62/176/49 4/12/49 16/48/49
f 2/5/50 1/3/50 48/135/50
f 1/3/50 46/129/50 48/135/50
f 2/6/51 61/173/51 17/51/51
f 2/6/51 17/51/51 3/9/51
